<svg width="60" height="72" viewBox="0 0 60 72" fill="none" xmlns="http://www.w3.org/2000/svg">
<path fill-rule="evenodd" clip-rule="evenodd" d="M29.5353 0.120094C27.4774 1.25764 22.3866 3.76638 16.7507 5.62709C11.5079 7.35798 4.71064 8.52146 1.08825 9.01037C0.456117 9.09569 -0.014969 9.63509 0.000363773 10.2721C0.125934 15.4889 0.443485 25.0023 0.903424 28.8156C1.52246 33.948 4.43191 44.3983 9.01275 51.695C13.5085 58.8561 20.0315 66.3746 29.4594 71.0939C29.7979 71.2633 30.1981 71.2633 30.5365 71.0939C39.9645 66.3746 46.4874 58.8561 50.9832 51.695C55.564 44.3983 58.4735 33.948 59.0925 28.8156C59.5525 25.0023 59.87 15.4889 59.9956 10.2721C60.0109 9.63509 59.5398 9.09569 58.9077 9.01037C55.2853 8.52146 48.488 7.35798 43.2453 5.62709C37.6093 3.76638 32.5185 1.25764 30.4606 0.120094C30.3186 0.0415878 30.1603 0 29.998 0C29.8357 0 29.6773 0.0415878 29.5353 0.120094ZM33.7698 46.556L31.6465 28.4843L47.2965 37.7953L40.9309 39.5877L45.6729 46.8934L42.7475 48.7881L38.0056 41.4824L33.7698 46.556Z" fill="url(#paint0_linear_58_4204)"/>
<defs>
<linearGradient id="paint0_linear_58_4204" x1="29.998" y1="0" x2="29.998" y2="71.221" gradientUnits="userSpaceOnUse">
<stop stop-color="#09A9E5"/>
<stop offset="1" stop-color="#2155CF"/>
</linearGradient>
</defs>
</svg>
