<svg width="172" height="54" viewBox="0 0 172 54" fill="none" xmlns="http://www.w3.org/2000/svg">
<path d="M64.5992 22.4833C62.7366 22.4833 61.1946 21.8851 59.9734 20.6886C58.7646 19.4797 58.1602 17.9501 58.1602 16.0998C58.1602 14.2495 58.7646 12.7261 59.9734 11.5296C61.1946 10.3207 62.7366 9.71631 64.5992 9.71631C66.4741 9.71631 68.0161 10.3146 69.2249 11.5111C70.4461 12.7076 71.0567 14.2372 71.0567 16.0998C71.0567 17.9625 70.4461 19.492 69.2249 20.6886C68.0161 21.8851 66.4741 22.4833 64.5992 22.4833ZM61.8792 19.0048C62.57 19.7696 63.4767 20.152 64.5992 20.152C65.7217 20.152 66.6283 19.7696 67.3191 19.0048C68.0099 18.24 68.3553 17.2717 68.3553 16.0998C68.3553 14.928 68.0099 13.9597 67.3191 13.1949C66.6283 12.4301 65.7217 12.0477 64.5992 12.0477C63.4767 12.0477 62.57 12.4301 61.8792 13.1949C61.2008 13.9597 60.8616 14.928 60.8616 16.0998C60.8616 17.2717 61.2008 18.24 61.8792 19.0048Z" fill="white"/>
<path d="M75.1949 22.2613H72.845V13.3244H75.1949V16.6364H78.8955V13.3244H81.2453V22.2613H78.8955V18.6902H75.1949V22.2613Z" fill="white"/>
<path d="M82.7455 22.4833V20.559C83.1156 20.559 83.4116 20.3432 83.6337 19.9114C83.8557 19.4674 84.0346 18.7149 84.1702 17.6541L84.7438 13.3244H91.9785V22.2613H89.6286V15.3782H86.7977L86.5016 17.9316C86.3166 19.4982 85.9219 20.6516 85.3174 21.3917C84.7253 22.1195 83.868 22.4833 82.7455 22.4833Z" fill="white"/>
<path d="M102.027 22.2613H99.6772V21.3362C99.0357 22.1009 98.0921 22.4833 96.8462 22.4833C96.0444 22.4833 95.3228 22.2243 94.6814 21.7062C94.0523 21.1758 93.7377 20.448 93.7377 19.5229C93.7377 18.5607 94.0461 17.8391 94.6629 17.358C95.292 16.877 96.0197 16.6364 96.8462 16.6364C98.1167 16.6364 99.0604 17.0003 99.6772 17.7281V16.5254C99.6772 16.069 99.4983 15.7051 99.1406 15.4337C98.7828 15.1623 98.3079 15.0267 97.7158 15.0267C96.7414 15.0267 95.8717 15.3782 95.1069 16.0813L94.2188 14.5086C95.2796 13.5711 96.581 13.1023 98.1229 13.1023C99.2701 13.1023 100.208 13.3676 100.935 13.898C101.663 14.4284 102.027 15.2919 102.027 16.4884V22.2613ZM97.7899 20.8921C98.6657 20.8921 99.2948 20.633 99.6772 20.115V19.0048C99.2948 18.4867 98.6657 18.2277 97.7899 18.2277C97.3088 18.2277 96.9079 18.351 96.5872 18.5977C96.2665 18.8321 96.1061 19.159 96.1061 19.5784C96.1061 19.9854 96.2665 20.3062 96.5872 20.5405C96.9079 20.7749 97.3088 20.8921 97.7899 20.8921Z" fill="white"/>
<path d="M106.615 22.2613H104.358V13.3244H106.708V18.7272L110.39 13.3244H112.758V22.2613H110.408V16.6549L106.615 22.2613ZM111.796 10.808C110.994 11.8935 109.915 12.4362 108.558 12.4362C107.213 12.4362 106.128 11.8935 105.301 10.808L106.338 9.93834C106.88 10.7031 107.621 11.0855 108.558 11.0855C109.471 11.0855 110.205 10.7031 110.76 9.93834L111.796 10.808Z" fill="white"/>
<path d="M117.441 22.2613H115.091V13.3244H117.441V16.6364H121.141V13.3244H123.491V22.2613H121.141V18.6902H117.441V22.2613Z" fill="white"/>
<path d="M65.3107 40.4081C63.4358 40.4081 61.8692 39.8161 60.611 38.6319C59.3651 37.4353 58.7422 35.8996 58.7422 34.0246C58.7422 32.1497 59.3651 30.6201 60.611 29.4359C61.8692 28.2394 63.4358 27.6411 65.3107 27.6411C67.6174 27.6411 69.3382 28.6464 70.4731 30.6571L68.2157 31.7673C67.9443 31.2492 67.5434 30.8236 67.013 30.4906C66.4949 30.1452 65.9275 29.9725 65.3107 29.9725C64.1882 29.9725 63.2631 30.3549 62.5353 31.1197C61.8075 31.8845 61.4436 32.8528 61.4436 34.0246C61.4436 35.1965 61.8075 36.1648 62.5353 36.9296C63.2631 37.6944 64.1882 38.0768 65.3107 38.0768C65.9275 38.0768 66.4949 37.9102 67.013 37.5772C67.5434 37.2441 67.9443 36.8124 68.2157 36.282L70.4731 37.3737C69.3012 39.3967 67.5804 40.4081 65.3107 40.4081Z" fill="white"/>
<path d="M75.9966 40.1861H73.6282V33.303H71.1303V31.2492H78.4945V33.303H75.9966V40.1861Z" fill="white"/>
<path d="M85.0749 40.4081C83.9524 40.4081 83.0334 39.9517 82.318 39.0389V43.5907H79.9681V31.2492H82.318V32.3779C83.0211 31.4774 83.9401 31.0272 85.0749 31.0272C86.2468 31.0272 87.1966 31.4466 87.9244 32.2854C88.6645 33.1118 89.0345 34.2528 89.0345 35.7084C89.0345 37.164 88.6645 38.3111 87.9244 39.1499C87.1966 39.9887 86.2468 40.4081 85.0749 40.4081ZM84.3348 38.3173C85.0132 38.3173 85.556 38.0768 85.9631 37.5957C86.3825 37.1146 86.5922 36.4855 86.5922 35.7084C86.5922 34.9436 86.3825 34.3207 85.9631 33.8396C85.556 33.3585 85.0132 33.118 84.3348 33.118C83.9524 33.118 83.57 33.2167 83.1876 33.414C82.8052 33.6114 82.5153 33.8519 82.318 34.1356V37.2997C82.5153 37.5834 82.8052 37.8239 83.1876 38.0213C83.5823 38.2186 83.9647 38.3173 84.3348 38.3173Z" fill="white"/>
<path d="M98.4712 40.1861H96.1213V39.261C95.4799 40.0258 94.5362 40.4081 93.2904 40.4081C92.4886 40.4081 91.767 40.1491 91.1255 39.631C90.4964 39.1006 90.1819 38.3728 90.1819 37.4477C90.1819 36.4855 90.4903 35.7639 91.107 35.2828C91.7361 34.8018 92.4639 34.5612 93.2904 34.5612C94.5609 34.5612 95.5046 34.9251 96.1213 35.6529V34.4502C96.1213 33.9938 95.9425 33.6299 95.5847 33.3585C95.227 33.0871 94.7521 32.9515 94.16 32.9515C93.1855 32.9515 92.3159 33.303 91.5511 34.0061L90.663 32.4334C91.7238 31.4959 93.0252 31.0272 94.5671 31.0272C95.7143 31.0272 96.6517 31.2924 97.3795 31.8228C98.1073 32.3532 98.4712 33.2167 98.4712 34.4132V40.1861ZM94.234 38.8169C95.1098 38.8169 95.7389 38.5579 96.1213 38.0398V36.9296C95.7389 36.4115 95.1098 36.1525 94.234 36.1525C93.7529 36.1525 93.352 36.2758 93.0313 36.5225C92.7106 36.7569 92.5503 37.0838 92.5503 37.5032C92.5503 37.9103 92.7106 38.231 93.0313 38.4653C93.352 38.6997 93.7529 38.8169 94.234 38.8169Z" fill="white"/>
<path d="M108.962 40.1861H106.334L104.299 37.1701L102.245 40.1861H99.6363L102.8 35.5974L99.8213 31.2492H102.449L104.299 34.0061L106.131 31.2492H108.758L105.761 35.5974L108.962 40.1861Z" fill="white"/>
<path d="M117.08 39.0574C116.216 39.9579 115.069 40.4081 113.638 40.4081C112.207 40.4081 111.06 39.9579 110.196 39.0574C109.345 38.1446 108.92 37.0283 108.92 35.7084C108.92 34.3885 109.345 33.2783 110.196 32.3779C111.06 31.4774 112.207 31.0272 113.638 31.0272C115.069 31.0272 116.216 31.4774 117.08 32.3779C117.943 33.2783 118.375 34.3885 118.375 35.7084C118.375 37.0283 117.943 38.1446 117.08 39.0574ZM111.973 37.5772C112.38 38.0706 112.935 38.3173 113.638 38.3173C114.341 38.3173 114.896 38.0706 115.303 37.5772C115.723 37.0714 115.932 36.4485 115.932 35.7084C115.932 34.9806 115.723 34.37 115.303 33.8766C114.896 33.3709 114.341 33.118 113.638 33.118C112.935 33.118 112.38 33.3709 111.973 33.8766C111.566 34.37 111.362 34.9806 111.362 35.7084C111.362 36.4485 111.566 37.0714 111.973 37.5772Z" fill="white"/>
<path d="M125.946 40.1861H120.118V31.2492H125.78C126.643 31.2492 127.316 31.4712 127.797 31.9153C128.278 32.3594 128.518 32.9021 128.518 33.5436C128.518 34.0616 128.377 34.4995 128.093 34.8573C127.809 35.215 127.445 35.4555 127.001 35.5789C127.495 35.6899 127.902 35.9489 128.222 36.356C128.543 36.7631 128.703 37.2318 128.703 37.7622C128.703 38.4653 128.457 39.0451 127.963 39.5015C127.482 39.9579 126.81 40.1861 125.946 40.1861ZM125.373 38.2618C125.657 38.2618 125.879 38.1878 126.039 38.0398C126.212 37.8917 126.298 37.6882 126.298 37.4292C126.298 37.1948 126.212 36.9974 126.039 36.8371C125.879 36.6767 125.657 36.5965 125.373 36.5965H122.468V38.2618H125.373ZM125.299 34.6722C125.546 34.6722 125.743 34.6044 125.891 34.4687C126.051 34.3207 126.132 34.1418 126.132 33.9321C126.132 33.7101 126.058 33.5312 125.909 33.3955C125.761 33.2475 125.558 33.1735 125.299 33.1735H122.468V34.6722H125.299Z" fill="white"/>
<path d="M138.675 40.1861H136.325V39.261C135.684 40.0258 134.74 40.4081 133.495 40.4081C132.693 40.4081 131.971 40.1491 131.33 39.631C130.701 39.1006 130.386 38.3728 130.386 37.4477C130.386 36.4855 130.694 35.7639 131.311 35.2828C131.94 34.8018 132.668 34.5612 133.495 34.5612C134.765 34.5612 135.709 34.9251 136.325 35.6529V34.4502C136.325 33.9938 136.147 33.6299 135.789 33.3585C135.431 33.0871 134.956 32.9515 134.364 32.9515C133.39 32.9515 132.52 33.303 131.755 34.0061L130.867 32.4334C131.928 31.4959 133.229 31.0272 134.771 31.0272C135.918 31.0272 136.856 31.2924 137.584 31.8228C138.311 32.3532 138.675 33.2167 138.675 34.4132V40.1861ZM134.438 38.8169C135.314 38.8169 135.943 38.5579 136.325 38.0398V36.9296C135.943 36.4115 135.314 36.1525 134.438 36.1525C133.957 36.1525 133.556 36.2758 133.235 36.5225C132.915 36.7569 132.754 37.0838 132.754 37.5032C132.754 37.9103 132.915 38.231 133.235 38.4653C133.556 38.6997 133.957 38.8169 134.438 38.8169Z" fill="white"/>
<path d="M143.356 40.1861H141.006V31.2492H143.356V34.5612H147.057V31.2492H149.406V40.1861H147.057V36.615H143.356V40.1861Z" fill="white"/>
<path d="M153.997 40.1861H151.739V31.2492H154.089V36.6521L157.771 31.2492H160.14V40.1861H157.79V34.5797L153.997 40.1861Z" fill="white"/>
<path d="M166.673 40.4081C165.291 40.4081 164.15 39.9764 163.25 39.1129C162.349 38.2495 161.899 37.1146 161.899 35.7084C161.899 34.3885 162.331 33.2783 163.194 32.3779C164.07 31.4774 165.18 31.0272 166.525 31.0272C167.857 31.0272 168.936 31.4836 169.763 32.3964C170.589 33.2968 171.002 34.481 171.002 35.9489V36.467H164.36C164.434 37.0591 164.699 37.5525 165.155 37.9473C165.612 38.342 166.204 38.5394 166.932 38.5394C167.326 38.5394 167.752 38.4592 168.208 38.2988C168.677 38.1385 169.047 37.9226 169.319 37.6512L170.355 39.1685C169.454 39.9949 168.227 40.4081 166.673 40.4081ZM168.726 34.8758C168.689 34.37 168.486 33.9136 168.116 33.5065C167.758 33.0995 167.228 32.896 166.525 32.896C165.859 32.896 165.34 33.0995 164.97 33.5065C164.6 33.9013 164.384 34.3577 164.323 34.8758H168.726Z" fill="white"/>
<path fill-rule="evenodd" clip-rule="evenodd" d="M22.0603 0.0896999C20.5233 0.939351 16.7209 2.81317 12.5113 4.20295C8.59544 5.49578 3.51844 6.3648 0.812828 6.72998C0.34068 6.7937 -0.0111806 7.19658 0.000271707 7.67237C0.0940621 11.5689 0.331245 18.6746 0.67478 21.5228C1.13714 25.3563 3.31026 33.1618 6.73176 38.6117C10.0897 43.9605 14.9618 49.5761 22.0037 53.1011C22.2565 53.2276 22.5554 53.2276 22.8081 53.1011C29.85 49.5761 34.7221 43.9605 38.0801 38.6117C41.5016 33.1618 43.6747 25.3563 44.137 21.5228C44.4806 18.6746 44.7178 11.5689 44.8116 7.67237C44.823 7.19658 44.4711 6.7937 43.999 6.72998C41.2934 6.3648 36.2164 5.49578 32.3005 4.20295C28.091 2.81317 24.2885 0.939351 22.7515 0.0896999C22.6454 0.0310626 22.5271 0 22.4059 0C22.2847 0 22.1664 0.0310626 22.0603 0.0896999ZM25.2232 34.7733L23.6372 21.2753L35.3264 28.2299L30.5719 29.5686L34.1137 35.0254L31.9287 36.4406L28.3869 30.9838L25.2232 34.7733Z" fill="white"/>
</svg>
