<svg width="46" height="46" viewBox="0 0 46 46" fill="none" xmlns="http://www.w3.org/2000/svg">
<path d="M34.164 34.2853H1.34963V11.4048H6.6643C7.03698 11.4048 7.33912 11.1027 7.33912 10.73C7.33912 10.3573 7.03698 10.0552 6.6643 10.0552H0.674816C0.302138 10.0552 0 10.3573 0 10.73V34.9601C0 35.3328 0.302138 35.6349 0.674816 35.6349H6.54419L9.05828 41.056C9.21295 41.3896 9.62036 41.5393 9.95435 41.3843L12.4159 40.2428L19.8783 45.5671C20.1777 45.7807 20.6063 45.7087 20.8196 45.4098L27.794 35.6348H34.1641C34.5368 35.6348 34.839 35.3327 34.839 34.96C34.8388 34.5874 34.5366 34.2853 34.164 34.2853ZM8.03184 35.6349H19.1441L9.99862 39.8761L8.03184 35.6349ZM20.1128 44.0766L13.8242 39.5897L22.3523 35.6349H26.1358L20.1128 44.0766Z" fill="#2155CF"/>
<path d="M45.3262 10.0553H39.4569L36.9429 4.63409C36.7884 4.301 36.3805 4.15102 36.0468 4.30586L33.5852 5.44738L26.1229 0.122994C25.8235 -0.0904279 25.395 -0.0186274 25.1816 0.280451L18.2073 10.0554H9.36232C8.98964 10.0554 8.6875 10.3575 8.6875 10.7302C8.6875 11.1029 8.98964 11.405 9.36232 11.405H18.5537C18.5539 11.405 18.554 11.4051 18.5542 11.4051C18.5545 11.4051 18.5547 11.405 18.5549 11.405H39.0239C39.0247 11.405 39.0255 11.4052 39.0264 11.4052C39.0275 11.4052 39.0286 11.405 39.0297 11.405H44.6513V34.2855H36.8619C36.4891 34.2855 36.1871 34.5877 36.1871 34.9603C36.1871 35.333 36.4891 35.6351 36.8619 35.6351H45.3261C45.6989 35.6351 46.001 35.333 46.001 34.9603V10.7301C46.001 10.3574 45.699 10.0553 45.3262 10.0553ZM37.9692 10.0553H26.8569L36.0024 5.81412L37.9692 10.0553ZM25.8884 1.61362L32.1769 6.10052L23.6489 10.0554H19.8653L25.8884 1.61362Z" fill="#2155CF"/>
<path d="M22.9834 29.4239C26.5347 29.4239 29.4239 26.5347 29.4239 22.9834C29.4239 19.4322 26.5347 16.543 22.9834 16.543C19.4322 16.543 16.543 19.4321 16.543 22.9834C16.543 26.5347 19.4322 29.4239 22.9834 29.4239ZM22.9834 17.8926C25.7905 17.8926 28.0742 20.1763 28.0742 22.9834C28.0742 25.7905 25.7905 28.0742 22.9834 28.0742C20.1764 28.0742 17.8926 25.7905 17.8926 22.9834C17.8926 20.1764 20.1764 17.8926 22.9834 17.8926Z" fill="#2155CF"/>
<path d="M17.2868 32.3274H37.8434C38.2161 32.3274 38.5182 32.0253 38.5182 31.6526C38.5182 29.9538 40.2313 28.2865 41.9767 28.2865C42.3494 28.2865 42.6515 27.9843 42.6515 27.6116V18.0771C42.6515 17.7044 42.3494 17.4023 41.9767 17.4023C40.2313 17.4023 38.5182 15.735 38.5182 14.0361C38.5182 13.6635 38.2161 13.3613 37.8434 13.3613H7.78867C7.41599 13.3613 7.11385 13.6635 7.11385 14.0361C7.11385 15.839 5.66929 17.4203 4.02247 17.4203C3.64979 17.4203 3.34766 17.7224 3.34766 18.0951V27.5935C3.34766 27.9661 3.64979 28.2683 4.02247 28.2683C5.66929 28.2683 7.11385 29.8497 7.11385 31.6524C7.11385 32.0251 7.41599 32.3273 7.78867 32.3273H14.5876C14.9603 32.3273 15.2624 32.0251 15.2624 31.6524C15.2624 31.2798 14.9603 30.9776 14.5876 30.9776H8.41328C8.27309 30.0307 7.84391 29.1139 7.1888 28.3883C6.49734 27.6224 5.63042 27.1347 4.6972 26.9756V18.7128C5.63033 18.5537 6.49725 18.066 7.1888 17.3001C7.84391 16.5746 8.27309 15.6577 8.41328 14.7108H37.228C37.5684 16.6504 39.3233 18.3679 41.3018 18.6956V26.9927C39.3233 27.3203 37.5684 29.0379 37.228 30.9775H17.2868C16.9142 30.9775 16.612 31.2797 16.612 31.6524C16.612 32.0253 16.9142 32.3274 17.2868 32.3274Z" fill="#2155CF"/>
</svg>
