<svg width="33" height="39" viewBox="0 0 33 39" fill="none" xmlns="http://www.w3.org/2000/svg">
<path d="M31.6867 37.5067H29.7467V34.92H26.5133V28.3098C26.5133 26.5638 25.6455 24.9419 24.1924 23.9732L17.3326 19.4L24.1924 14.8268C25.6455 13.8581 26.5133 12.2362 26.5133 10.4902V3.88H29.7467V1.29333H31.6867C32.0436 1.29333 32.3333 1.00427 32.3333 0.646667C32.3333 0.28906 32.0436 0 31.6867 0H29.7467H29.1H3.23333H2.58667H0.646667C0.289707 0 0 0.28906 0 0.646667C0 1.00427 0.289707 1.29333 0.646667 1.29333H2.58667V3.88H5.82V10.4902C5.82 12.2362 6.68783 13.8581 8.14089 14.8268L15.0007 19.4L8.14089 23.9732C6.68783 24.9419 5.82 26.5638 5.82 28.3098V34.92H2.58667V37.5067H0.646667C0.289707 37.5067 0 37.7957 0 38.1533C0 38.5109 0.289707 38.8 0.646667 38.8H2.58667H3.23333H29.1H29.7467H31.6867C32.0436 38.8 32.3333 38.5109 32.3333 38.1533C32.3333 37.7957 32.0436 37.5067 31.6867 37.5067ZM3.88 2.58667V1.29333H28.4533V2.58667H26.5133H5.82H3.88ZM8.85804 13.7507C7.76582 13.0219 7.11333 11.803 7.11333 10.4902V3.88H25.22V10.4902C25.22 11.803 24.5675 13.0219 23.4753 13.7507L16.1667 18.6227L8.85804 13.7507ZM7.11333 28.3098C7.11333 26.997 7.76582 25.7781 8.85804 25.0493L16.1667 20.1773L23.4753 25.0493C24.5675 25.7781 25.22 26.997 25.22 28.3098V34.92H7.11333V28.3098ZM3.88 36.2133H5.82H26.5133H28.4533V37.5067H3.88V36.2133Z" fill="#2155CF"/>
</svg>
