<svg width="36" height="45" viewBox="0 0 36 45" fill="none" xmlns="http://www.w3.org/2000/svg">
<path d="M34.5956 9.11127L17.6826 0.0991576C17.4317 -0.0347553 17.131 -0.032876 16.882 0.103856L0.436979 9.11596C0.167274 9.26397 0 9.54684 0 9.8546V21.6267C0.0098673 31.3037 5.74322 40.0583 14.6097 43.9352L16.8923 44.9299C17.1056 45.023 17.3485 45.0234 17.5623 44.9309L20.1344 43.8201C29.1653 40.0273 35.0406 31.1881 35.0415 21.3932V9.8546C35.0415 9.54355 34.87 9.2574 34.5956 9.11127V9.11127ZM33.3575 21.3932C33.3556 30.5129 27.884 38.7417 19.4752 42.2709L19.4695 42.2738L17.2297 43.2407L15.2835 42.3917C7.0302 38.7831 1.69294 30.6346 1.68354 21.6267V10.3531L17.2922 1.79868L33.3575 10.3592V21.3932Z" fill="#2155CF"/>
<path d="M11.0804 21.081C10.7782 20.7272 10.2468 20.6854 9.893 20.9875C9.53919 21.2892 9.49737 21.8211 9.79949 22.1744L14.2473 27.3829C14.5442 27.7307 15.0644 27.7781 15.4187 27.4896L25.7774 19.062C26.1383 18.7688 26.1928 18.2383 25.8991 17.8775C25.6059 17.5171 25.0754 17.4621 24.7146 17.7558L14.9939 25.6637L11.0804 21.081Z" fill="#2155CF"/>
</svg>
