<svg width="96" height="16" viewBox="0 0 96 16" fill="none" xmlns="http://www.w3.org/2000/svg">
<path d="M7.93304 0.000488281L10.2645 4.76425L15.4778 5.52815L11.7054 9.23622L12.596 14.4721L7.93304 12L3.27012 14.4721L4.16066 9.23622L0.388271 5.52815L5.60158 4.76425L7.93304 0.000488281Z" fill="#F7941E"/>
<path d="M27.7651 0L30.0965 4.76376L35.3098 5.52766L31.5375 9.23573L32.428 14.4716L27.7651 11.9996L23.1021 14.4716L23.9927 9.23573L20.2203 5.52766L25.4336 4.76376L27.7651 0Z" fill="#F7941E"/>
<path d="M47.5971 0.000976562L49.9286 4.76473L55.1419 5.52864L51.3695 9.23671L52.26 14.4726L47.5971 12.0005L42.9342 14.4726L43.8247 9.23671L40.0523 5.52864L45.2656 4.76473L47.5971 0.000976562Z" fill="#F7941E"/>
<path d="M67.4291 0L69.7606 4.76376L74.9739 5.52766L71.2015 9.23573L72.0921 14.4716L67.4291 11.9996L62.7662 14.4716L63.6568 9.23573L59.8844 5.52766L65.0977 4.76376L67.4291 0Z" fill="#F7941E"/>
<path d="M87.2612 0L89.5926 4.76376L94.8059 5.52766L91.0336 9.23573L91.9241 14.4716L87.2612 11.9996L82.5982 14.4716L83.4888 9.23573L79.7164 5.52766L84.9297 4.76376L87.2612 0Z" fill="#F7941E"/>
</svg>
