<svg width="104" height="74" viewBox="0 0 104 74" fill="none" xmlns="http://www.w3.org/2000/svg">
<path d="M87.7817 48.0345L96.1592 39.6195C97.33 38.4435 96.7791 36.3715 95.1852 35.9349L80.0187 31.7798V3.13408C80.0187 1.91702 79.0363 0.930176 77.8246 0.930176H2.93628C1.72464 0.930176 0.742188 1.91702 0.742188 3.13408V50.1486C0.742188 51.3657 1.72464 52.3525 2.93628 52.3525H62.5162L66.0142 65.2364C66.4489 66.8376 68.5117 67.3907 69.6824 66.2147L78.06 57.7997L93.0565 72.8634C93.9018 73.7124 95.314 73.7124 96.1592 72.8634L102.778 66.2147C103.635 65.354 103.635 63.9586 102.778 63.0982L87.7817 48.0345ZM5.13007 47.945V5.33799H75.6305V30.5777L58.7791 25.9614C57.1716 25.5209 55.6467 27.0527 56.0852 28.6674L61.3192 47.9447H5.13007V47.945ZM94.608 68.189L79.6114 53.1253C78.7662 52.276 77.354 52.2763 76.5088 53.1253L69.2529 60.4133L61.3291 31.2291L90.3833 39.1884L83.1278 46.4766C82.2709 47.3374 82.2709 48.7327 83.1278 49.5932L98.1244 64.6569L94.608 68.189Z" fill="#0A2C7D"/>
</svg>
