<svg width="149" height="136" viewBox="0 0 149 136" fill="none" xmlns="http://www.w3.org/2000/svg">
<path d="M146.813 0.608887H2.18698C0.979266 0.608887 0 1.58888 0 2.79748V133.524C0 134.733 0.979266 135.713 2.18698 135.713H146.813C148.021 135.713 149 134.733 149 133.524V2.79748C149 1.58888 148.02 0.608887 146.813 0.608887ZM4.37367 131.335V23.6612H19.0015C20.2092 23.6612 21.1885 22.6812 21.1885 21.4726C21.1885 20.264 20.2092 19.284 19.0015 19.284H4.37367V4.98578H144.626V19.284H29.1097C27.9019 19.284 26.9227 20.264 26.9227 21.4726C26.9227 22.6812 27.9019 23.6612 29.1097 23.6612H144.626V131.335H4.37367Z" fill="#0A2C7D"/>
</svg>
