<svg width="185" height="41" viewBox="0 0 185 41" fill="none" xmlns="http://www.w3.org/2000/svg">
<path d="M49.5392 25.0011C48.1109 25.0011 46.9285 24.5423 45.992 23.6248C45.0651 22.6978 44.6016 21.5249 44.6016 20.106C44.6016 18.6871 45.0651 17.519 45.992 16.6014C46.9285 15.6744 48.1109 15.2109 49.5392 15.2109C50.977 15.2109 52.1594 15.6697 53.0864 16.5872C54.0228 17.5048 54.491 18.6777 54.491 20.106C54.491 21.5343 54.0228 22.7073 53.0864 23.6248C52.1594 24.5423 50.977 25.0011 49.5392 25.0011ZM47.4535 22.3336C47.9832 22.9201 48.6784 23.2133 49.5392 23.2133C50.4 23.2133 51.0952 22.9201 51.6249 22.3336C52.1546 21.7472 52.4195 21.0046 52.4195 20.106C52.4195 19.2074 52.1546 18.4649 51.6249 17.8784C51.0952 17.2919 50.4 16.9987 49.5392 16.9987C48.6784 16.9987 47.9832 17.2919 47.4535 17.8784C46.9332 18.4649 46.6731 19.2074 46.6731 20.106C46.6731 21.0046 46.9332 21.7472 47.4535 22.3336Z" fill="#001237"/>
<path d="M57.6643 24.8308H55.8623V17.9777H57.6643V20.5175H60.502V17.9777H62.304V24.8308H60.502V22.0924H57.6643V24.8308Z" fill="#001237"/>
<path d="M63.4543 25.0011V23.5255C63.7381 23.5255 63.9651 23.3599 64.1354 23.0289C64.3057 22.6883 64.4428 22.1113 64.5469 21.2979L64.9867 17.9777H70.5345V24.8308H68.7325V19.5527H66.5616L66.3346 21.5107C66.1927 22.712 65.8901 23.5964 65.4266 24.1639C64.9725 24.722 64.3151 25.0011 63.4543 25.0011Z" fill="#001237"/>
<path d="M78.24 24.8308H76.438V24.1214C75.9462 24.7078 75.2225 25.0011 74.2672 25.0011C73.6523 25.0011 73.099 24.8024 72.6071 24.4052C72.1247 23.9984 71.8835 23.4403 71.8835 22.7309C71.8835 21.9931 72.12 21.4397 72.5929 21.0708C73.0753 20.7019 73.6334 20.5175 74.2672 20.5175C75.2415 20.5175 75.9651 20.7965 76.438 21.3546V20.4323C76.438 20.0824 76.3009 19.8033 76.0266 19.5952C75.7522 19.3871 75.3881 19.2831 74.934 19.2831C74.1868 19.2831 73.5199 19.5527 72.9334 20.0918L72.2524 18.8858C73.0659 18.1669 74.0638 17.8075 75.2462 17.8075C76.1259 17.8075 76.8448 18.0108 77.4029 18.4176C77.9609 18.8243 78.24 19.4864 78.24 20.404V24.8308ZM74.9908 23.7809C75.6624 23.7809 76.1448 23.5822 76.438 23.1849V22.3336C76.1448 21.9363 75.6624 21.7377 74.9908 21.7377C74.6219 21.7377 74.3145 21.8323 74.0685 22.0215C73.8226 22.2012 73.6996 22.4519 73.6996 22.7735C73.6996 23.0856 73.8226 23.3316 74.0685 23.5113C74.3145 23.691 74.6219 23.7809 74.9908 23.7809Z" fill="#001237"/>
<path d="M81.7583 24.8308H80.0273V17.9777H81.8293V22.1208L84.6528 17.9777H86.4689V24.8308H84.667V20.5317L81.7583 24.8308ZM85.7311 16.0481C85.1163 16.8805 84.2886 17.2967 83.2481 17.2967C82.2171 17.2967 81.3847 16.8805 80.7509 16.0481L81.5455 15.3812C81.9617 15.9677 82.5292 16.2609 83.2481 16.2609C83.9481 16.2609 84.5109 15.9677 84.9366 15.3812L85.7311 16.0481Z" fill="#001237"/>
<path d="M90.0598 24.8308H88.2578V17.9777H90.0598V20.5175H92.8975V17.9777H94.6994V24.8308H92.8975V22.0924H90.0598V24.8308Z" fill="#001237"/>
<path d="M103.951 25.0011C102.513 25.0011 101.312 24.547 100.347 23.639C99.3917 22.7214 98.9141 21.5438 98.9141 20.106C98.9141 18.6682 99.3917 17.4953 100.347 16.5872C101.312 15.6697 102.513 15.2109 103.951 15.2109C105.72 15.2109 107.039 15.9819 107.91 17.5237L106.179 18.375C105.971 17.9777 105.663 17.6514 105.256 17.396C104.859 17.1311 104.424 16.9987 103.951 16.9987C103.09 16.9987 102.381 17.2919 101.823 17.8784C101.265 18.4649 100.986 19.2074 100.986 20.106C100.986 21.0046 101.265 21.7472 101.823 22.3336C102.381 22.9201 103.09 23.2133 103.951 23.2133C104.424 23.2133 104.859 23.0856 105.256 22.8302C105.663 22.5748 105.971 22.2438 106.179 21.837L107.91 22.6741C107.011 24.2254 105.691 25.0011 103.951 25.0011Z" fill="url(#paint0_linear_58_3945)"/>
<path d="M112.145 24.8308H110.329V19.5527H108.414V17.9777H114.061V19.5527H112.145V24.8308Z" fill="url(#paint1_linear_58_3945)"/>
<path d="M119.107 25.0011C118.246 25.0011 117.541 24.6511 116.993 23.9511V27.4415H115.191V17.9777H116.993V18.8432C117.532 18.1527 118.237 17.8075 119.107 17.8075C120.005 17.8075 120.734 18.1291 121.292 18.7723C121.859 19.406 122.143 20.281 122.143 21.3972C122.143 22.5133 121.859 23.393 121.292 24.0363C120.734 24.6795 120.005 25.0011 119.107 25.0011ZM118.539 23.3978C119.059 23.3978 119.476 23.2133 119.788 22.8444C120.109 22.4755 120.27 21.9931 120.27 21.3972C120.27 20.8107 120.109 20.333 119.788 19.9641C119.476 19.5952 119.059 19.4108 118.539 19.4108C118.246 19.4108 117.953 19.4864 117.66 19.6378C117.366 19.7891 117.144 19.9736 116.993 20.1911V22.6174C117.144 22.8349 117.366 23.0194 117.66 23.1707C117.962 23.3221 118.255 23.3978 118.539 23.3978Z" fill="url(#paint2_linear_58_3945)"/>
<path d="M129.379 24.8308H127.577V24.1214C127.086 24.7078 126.362 25.0011 125.407 25.0011C124.792 25.0011 124.238 24.8024 123.747 24.4052C123.264 23.9984 123.023 23.4403 123.023 22.7309C123.023 21.9931 123.259 21.4397 123.732 21.0708C124.215 20.7019 124.773 20.5175 125.407 20.5175C126.381 20.5175 127.105 20.7965 127.577 21.3546V20.4323C127.577 20.0824 127.44 19.8033 127.166 19.5952C126.892 19.3871 126.528 19.2831 126.073 19.2831C125.326 19.2831 124.659 19.5527 124.073 20.0918L123.392 18.8858C124.205 18.1669 125.203 17.8075 126.386 17.8075C127.265 17.8075 127.984 18.0108 128.542 18.4176C129.1 18.8243 129.379 19.4864 129.379 20.404V24.8308ZM126.13 23.7809C126.802 23.7809 127.284 23.5822 127.577 23.1849V22.3336C127.284 21.9363 126.802 21.7377 126.13 21.7377C125.761 21.7377 125.454 21.8323 125.208 22.0215C124.962 22.2012 124.839 22.4519 124.839 22.7735C124.839 23.0856 124.962 23.3316 125.208 23.5113C125.454 23.691 125.761 23.7809 126.13 23.7809Z" fill="url(#paint3_linear_58_3945)"/>
<path d="M137.424 24.8308H135.409L133.848 22.5181L132.273 24.8308H130.273L132.699 21.312L130.415 17.9777H132.43L133.848 20.0918L135.253 17.9777H137.268L134.969 21.312L137.424 24.8308Z" fill="url(#paint4_linear_58_3945)"/>
<path d="M143.649 23.9653C142.987 24.6558 142.107 25.0011 141.01 25.0011C139.913 25.0011 139.033 24.6558 138.371 23.9653C137.718 23.2653 137.392 22.4093 137.392 21.3972C137.392 20.3851 137.718 19.5337 138.371 18.8432C139.033 18.1527 139.913 17.8075 141.01 17.8075C142.107 17.8075 142.987 18.1527 143.649 18.8432C144.311 19.5337 144.642 20.3851 144.642 21.3972C144.642 22.4093 144.311 23.2653 143.649 23.9653ZM139.733 22.8302C140.045 23.2086 140.471 23.3978 141.01 23.3978C141.549 23.3978 141.975 23.2086 142.287 22.8302C142.608 22.4424 142.769 21.9647 142.769 21.3972C142.769 20.8391 142.608 20.3709 142.287 19.9925C141.975 19.6047 141.549 19.4108 141.01 19.4108C140.471 19.4108 140.045 19.6047 139.733 19.9925C139.421 20.3709 139.265 20.8391 139.265 21.3972C139.265 21.9647 139.421 22.4424 139.733 22.8302Z" fill="url(#paint5_linear_58_3945)"/>
<path d="M150.448 24.8308H145.979V17.9777H150.321C150.983 17.9777 151.498 18.148 151.867 18.4885C152.236 18.829 152.421 19.2452 152.421 19.7371C152.421 20.1344 152.312 20.4702 152.094 20.7445C151.877 21.0188 151.598 21.2033 151.257 21.2979C151.635 21.383 151.948 21.5816 152.194 21.8938C152.439 22.2059 152.562 22.5654 152.562 22.9721C152.562 23.5113 152.373 23.9558 151.995 24.3058C151.626 24.6558 151.11 24.8308 150.448 24.8308ZM150.008 23.3552C150.226 23.3552 150.396 23.2984 150.519 23.1849C150.652 23.0714 150.718 22.9154 150.718 22.7167C150.718 22.537 150.652 22.3856 150.519 22.2627C150.396 22.1397 150.226 22.0782 150.008 22.0782H147.781V23.3552H150.008ZM149.952 20.6026C150.141 20.6026 150.292 20.5506 150.406 20.4465C150.529 20.333 150.59 20.1959 150.59 20.0351C150.59 19.8648 150.533 19.7276 150.42 19.6236C150.306 19.5101 150.15 19.4533 149.952 19.4533H147.781V20.6026H149.952Z" fill="url(#paint6_linear_58_3945)"/>
<path d="M160.209 24.8308H158.407V24.1214C157.915 24.7078 157.192 25.0011 156.236 25.0011C155.622 25.0011 155.068 24.8024 154.576 24.4052C154.094 23.9984 153.853 23.4403 153.853 22.7309C153.853 21.9931 154.089 21.4397 154.562 21.0708C155.045 20.7019 155.603 20.5175 156.236 20.5175C157.211 20.5175 157.934 20.7965 158.407 21.3546V20.4323C158.407 20.0824 158.27 19.8033 157.996 19.5952C157.721 19.3871 157.357 19.2831 156.903 19.2831C156.156 19.2831 155.489 19.5527 154.903 20.0918L154.222 18.8858C155.035 18.1669 156.033 17.8075 157.215 17.8075C158.095 17.8075 158.814 18.0108 159.372 18.4176C159.93 18.8243 160.209 19.4864 160.209 20.404V24.8308ZM156.96 23.7809C157.632 23.7809 158.114 23.5822 158.407 23.1849V22.3336C158.114 21.9363 157.632 21.7377 156.96 21.7377C156.591 21.7377 156.284 21.8323 156.038 22.0215C155.792 22.2012 155.669 22.4519 155.669 22.7735C155.669 23.0856 155.792 23.3316 156.038 23.5113C156.284 23.691 156.591 23.7809 156.96 23.7809Z" fill="url(#paint7_linear_58_3945)"/>
<path d="M163.798 24.8308H161.997V17.9777H163.798V20.5175H166.636V17.9777H168.438V24.8308H166.636V22.0924H163.798V24.8308Z" fill="url(#paint8_linear_58_3945)"/>
<path d="M171.958 24.8308H170.227V17.9777H172.029V22.1208L174.852 17.9777H176.669V24.8308H174.867V20.5317L171.958 24.8308Z" fill="url(#paint9_linear_58_3945)"/>
<path d="M181.678 25.0011C180.619 25.0011 179.744 24.67 179.053 24.0079C178.363 23.3457 178.018 22.4755 178.018 21.3972C178.018 20.3851 178.349 19.5337 179.011 18.8432C179.682 18.1527 180.534 17.8075 181.565 17.8075C182.586 17.8075 183.414 18.1574 184.048 18.8574C184.682 19.5479 184.998 20.456 184.998 21.5816V21.9789H179.905C179.961 22.4329 180.165 22.8113 180.515 23.114C180.865 23.4167 181.319 23.568 181.877 23.568C182.18 23.568 182.506 23.5065 182.856 23.3836C183.215 23.2606 183.499 23.0951 183.707 22.887L184.502 24.0504C183.811 24.6842 182.87 25.0011 181.678 25.0011ZM183.253 20.7587C183.225 20.3709 183.069 20.0209 182.785 19.7087C182.511 19.3966 182.104 19.2405 181.565 19.2405C181.054 19.2405 180.657 19.3966 180.373 19.7087C180.089 20.0114 179.924 20.3614 179.876 20.7587H183.253Z" fill="url(#paint10_linear_58_3945)"/>
<path fill-rule="evenodd" clip-rule="evenodd" d="M16.9165 0.0687845C15.7379 0.720322 12.8221 2.15722 9.59404 3.22295C6.59124 4.21432 2.69805 4.88072 0.623301 5.16075C0.261244 5.20961 -0.00857361 5.51855 0.000208353 5.8834C0.0721296 8.87136 0.254008 14.3202 0.517441 16.5043C0.871996 19.4439 2.5384 25.4294 5.16211 29.6086C7.73707 33.7102 11.4731 38.0164 16.8731 40.7195C17.0669 40.8165 17.2961 40.8165 17.49 40.7195C22.8899 38.0164 26.626 33.7102 29.2009 29.6086C31.8246 25.4294 33.491 19.4439 33.8456 16.5043C34.109 14.3202 34.2909 8.87136 34.3628 5.8834C34.3716 5.51855 34.1018 5.20961 33.7397 5.16075C31.665 4.88072 27.7718 4.21432 24.769 3.22295C21.541 2.15722 18.6252 0.720322 17.4465 0.0687845C17.3652 0.0238197 17.2745 0 17.1815 0C17.0886 0 16.9979 0.0238197 16.9165 0.0687845ZM19.3419 26.6652L18.1257 16.3145L27.0894 21.6475L23.4434 22.6741L26.1594 26.8585L24.4839 27.9437L21.7679 23.7593L19.3419 26.6652Z" fill="url(#paint11_linear_58_3945)"/>
<defs>
<linearGradient id="paint0_linear_58_3945" x1="141.995" y1="13.3025" x2="141.995" y2="27.4911" gradientUnits="userSpaceOnUse">
<stop stop-color="#09A9E5"/>
<stop offset="1" stop-color="#2155CF"/>
</linearGradient>
<linearGradient id="paint1_linear_58_3945" x1="141.995" y1="13.3025" x2="141.995" y2="27.4911" gradientUnits="userSpaceOnUse">
<stop stop-color="#09A9E5"/>
<stop offset="1" stop-color="#2155CF"/>
</linearGradient>
<linearGradient id="paint2_linear_58_3945" x1="141.995" y1="13.3025" x2="141.995" y2="27.4911" gradientUnits="userSpaceOnUse">
<stop stop-color="#09A9E5"/>
<stop offset="1" stop-color="#2155CF"/>
</linearGradient>
<linearGradient id="paint3_linear_58_3945" x1="141.995" y1="13.3025" x2="141.995" y2="27.4911" gradientUnits="userSpaceOnUse">
<stop stop-color="#09A9E5"/>
<stop offset="1" stop-color="#2155CF"/>
</linearGradient>
<linearGradient id="paint4_linear_58_3945" x1="141.995" y1="13.3025" x2="141.995" y2="27.4911" gradientUnits="userSpaceOnUse">
<stop stop-color="#09A9E5"/>
<stop offset="1" stop-color="#2155CF"/>
</linearGradient>
<linearGradient id="paint5_linear_58_3945" x1="141.995" y1="13.3025" x2="141.995" y2="27.4911" gradientUnits="userSpaceOnUse">
<stop stop-color="#09A9E5"/>
<stop offset="1" stop-color="#2155CF"/>
</linearGradient>
<linearGradient id="paint6_linear_58_3945" x1="141.995" y1="13.3025" x2="141.995" y2="27.4911" gradientUnits="userSpaceOnUse">
<stop stop-color="#09A9E5"/>
<stop offset="1" stop-color="#2155CF"/>
</linearGradient>
<linearGradient id="paint7_linear_58_3945" x1="141.995" y1="13.3025" x2="141.995" y2="27.4911" gradientUnits="userSpaceOnUse">
<stop stop-color="#09A9E5"/>
<stop offset="1" stop-color="#2155CF"/>
</linearGradient>
<linearGradient id="paint8_linear_58_3945" x1="141.995" y1="13.3025" x2="141.995" y2="27.4911" gradientUnits="userSpaceOnUse">
<stop stop-color="#09A9E5"/>
<stop offset="1" stop-color="#2155CF"/>
</linearGradient>
<linearGradient id="paint9_linear_58_3945" x1="141.995" y1="13.3025" x2="141.995" y2="27.4911" gradientUnits="userSpaceOnUse">
<stop stop-color="#09A9E5"/>
<stop offset="1" stop-color="#2155CF"/>
</linearGradient>
<linearGradient id="paint10_linear_58_3945" x1="141.995" y1="13.3025" x2="141.995" y2="27.4911" gradientUnits="userSpaceOnUse">
<stop stop-color="#09A9E5"/>
<stop offset="1" stop-color="#2155CF"/>
</linearGradient>
<linearGradient id="paint11_linear_58_3945" x1="17.1815" y1="0" x2="17.1815" y2="40.7922" gradientUnits="userSpaceOnUse">
<stop stop-color="#09A9E5"/>
<stop offset="1" stop-color="#2155CF"/>
</linearGradient>
</defs>
</svg>
