<svg width="323" height="72" viewBox="0 0 323 72" fill="none" xmlns="http://www.w3.org/2000/svg">
<path d="M86.488 43.6497C83.9943 43.6497 81.9299 42.8487 80.2949 41.2467C78.6764 39.6283 77.8672 37.5804 77.8672 35.1032C77.8672 32.6259 78.6764 30.5863 80.2949 28.9843C81.9299 27.3659 83.9943 26.5566 86.488 26.5566C88.9983 26.5566 91.0627 27.3576 92.6812 28.9596C94.3161 30.5615 95.1336 32.6094 95.1336 35.1032C95.1336 37.5969 94.3161 39.6448 92.6812 41.2467C91.0627 42.8487 88.9983 43.6497 86.488 43.6497ZM82.8465 38.9924C83.7713 40.0164 84.9852 40.5283 86.488 40.5283C87.9909 40.5283 89.2047 40.0164 90.1296 38.9924C91.0544 37.9685 91.5168 36.6721 91.5168 35.1032C91.5168 33.5342 91.0544 32.2378 90.1296 31.2139C89.2047 30.1899 87.9909 29.678 86.488 29.678C84.9852 29.678 83.7713 30.1899 82.8465 31.2139C81.9381 32.2378 81.484 33.5342 81.484 35.1032C81.484 36.6721 81.9381 37.9685 82.8465 38.9924Z" fill="#001237"/>
<path d="M100.674 43.3524H97.5279V31.3873H100.674V35.8216H105.628V31.3873H108.775V43.3524H105.628V38.5713H100.674V43.3524Z" fill="#001237"/>
<path d="M110.783 43.6497V41.0733C111.279 41.0733 111.675 40.7843 111.972 40.2063C112.269 39.6118 112.509 38.6043 112.691 37.184L113.459 31.3873H123.145V43.3524H119.998V34.137H116.208L115.812 37.5556C115.564 39.653 115.036 41.1972 114.226 42.1881C113.434 43.1625 112.286 43.6497 110.783 43.6497Z" fill="#001237"/>
<path d="M136.598 43.3524H133.452V42.1138C132.593 43.1377 131.33 43.6497 129.662 43.6497C128.588 43.6497 127.622 43.3029 126.763 42.6092C125.921 41.8991 125.5 40.9247 125.5 39.6861C125.5 38.3979 125.913 37.4318 126.739 36.7877C127.581 36.1436 128.555 35.8216 129.662 35.8216C131.363 35.8216 132.626 36.3088 133.452 37.2831V35.6729C133.452 35.0619 133.212 34.5747 132.733 34.2113C132.255 33.848 131.619 33.6664 130.826 33.6664C129.521 33.6664 128.357 34.137 127.333 35.0784L126.144 32.9727C127.564 31.7176 129.307 31.09 131.371 31.09C132.907 31.09 134.162 31.4451 135.136 32.1552C136.111 32.8654 136.598 34.0214 136.598 35.6234V43.3524ZM130.925 41.5192C132.098 41.5192 132.94 41.1724 133.452 40.4788V38.9924C132.94 38.2988 132.098 37.952 130.925 37.952C130.281 37.952 129.744 38.1171 129.315 38.4474C128.885 38.7612 128.671 39.1989 128.671 39.7604C128.671 40.3054 128.885 40.7348 129.315 41.0486C129.744 41.3623 130.281 41.5192 130.925 41.5192Z" fill="#001237"/>
<path d="M142.741 43.3524H139.719V31.3873H142.865V38.6209L147.794 31.3873H150.965V43.3524H147.819V35.8463L142.741 43.3524ZM149.677 28.0182C148.604 29.4715 147.159 30.1982 145.342 30.1982C143.542 30.1982 142.088 29.4715 140.982 28.0182L142.369 26.8539C143.096 27.8778 144.087 28.3898 145.342 28.3898C146.564 28.3898 147.547 27.8778 148.29 26.8539L149.677 28.0182Z" fill="#001237"/>
<path d="M157.235 43.3524H154.089V31.3873H157.235V35.8216H162.189V31.3873H165.335V43.3524H162.189V38.5713H157.235V43.3524Z" fill="#001237"/>
<path d="M181.493 43.6497C178.983 43.6497 176.886 42.857 175.201 41.2715C173.533 39.6696 172.699 37.6134 172.699 35.1032C172.699 32.5929 173.533 30.545 175.201 28.9596C176.886 27.3576 178.983 26.5566 181.493 26.5566C184.582 26.5566 186.886 27.9026 188.405 30.5946L185.383 32.0809C185.019 31.3873 184.483 30.8175 183.773 30.3716C183.079 29.9092 182.319 29.678 181.493 29.678C179.991 29.678 178.752 30.1899 177.778 31.2139C176.803 32.2378 176.316 33.5342 176.316 35.1032C176.316 36.6721 176.803 37.9685 177.778 38.9924C178.752 40.0164 179.991 40.5283 181.493 40.5283C182.319 40.5283 183.079 40.3054 183.773 39.8595C184.483 39.4136 185.019 38.8356 185.383 38.1254L188.405 39.587C186.836 42.2954 184.532 43.6497 181.493 43.6497Z" fill="url(#paint0_linear_58_4201)"/>
<path d="M195.8 43.3524H192.629V34.137H189.285V31.3873H199.144V34.137H195.8V43.3524Z" fill="url(#paint1_linear_58_4201)"/>
<path d="M207.955 43.6497C206.452 43.6497 205.221 43.0386 204.263 41.8165V47.9105H201.117V31.3873H204.263V32.8984C205.205 31.6928 206.435 31.09 207.955 31.09C209.523 31.09 210.795 31.6515 211.77 32.7745C212.76 33.881 213.256 35.4087 213.256 37.3575C213.256 39.3062 212.76 40.8421 211.77 41.9651C210.795 43.0882 209.523 43.6497 207.955 43.6497ZM206.964 40.8504C207.872 40.8504 208.599 40.5283 209.144 39.8843C209.705 39.2402 209.986 38.3979 209.986 37.3575C209.986 36.3335 209.705 35.4995 209.144 34.8554C208.599 34.2113 207.872 33.8893 206.964 33.8893C206.452 33.8893 205.94 34.0214 205.428 34.2857C204.916 34.5499 204.528 34.8719 204.263 35.2518V39.4879C204.528 39.8677 204.916 40.1898 205.428 40.454C205.956 40.7183 206.468 40.8504 206.964 40.8504Z" fill="url(#paint2_linear_58_4201)"/>
<path d="M225.89 43.3524H222.744V42.1138C221.885 43.1377 220.622 43.6497 218.954 43.6497C217.88 43.6497 216.914 43.3029 216.055 42.6092C215.213 41.8991 214.792 40.9247 214.792 39.6861C214.792 38.3979 215.205 37.4318 216.031 36.7877C216.873 36.1436 217.847 35.8216 218.954 35.8216C220.655 35.8216 221.918 36.3088 222.744 37.2831V35.6729C222.744 35.0619 222.504 34.5747 222.026 34.2113C221.547 33.848 220.911 33.6664 220.118 33.6664C218.813 33.6664 217.649 34.137 216.625 35.0784L215.436 32.9727C216.856 31.7176 218.599 31.09 220.663 31.09C222.199 31.09 223.454 31.4451 224.428 32.1552C225.403 32.8654 225.89 34.0214 225.89 35.6234V43.3524ZM220.217 41.5192C221.39 41.5192 222.232 41.1724 222.744 40.4788V38.9924C222.232 38.2988 221.39 37.952 220.217 37.952C219.573 37.952 219.036 38.1171 218.607 38.4474C218.178 38.7612 217.963 39.1989 217.963 39.7604C217.963 40.3054 218.178 40.7348 218.607 41.0486C219.036 41.3623 219.573 41.5192 220.217 41.5192Z" fill="url(#paint3_linear_58_4201)"/>
<path d="M239.935 43.3524H236.418L233.693 39.3145L230.943 43.3524H227.45L231.686 37.2088L227.698 31.3873H231.215L233.693 35.0784L236.145 31.3873H239.663L235.65 37.2088L239.935 43.3524Z" fill="url(#paint4_linear_58_4201)"/>
<path d="M250.804 41.8413C249.648 43.0469 248.112 43.6497 246.196 43.6497C244.28 43.6497 242.744 43.0469 241.588 41.8413C240.449 40.6192 239.879 39.1246 239.879 37.3575C239.879 35.5904 240.449 34.104 241.588 32.8984C242.744 31.6928 244.28 31.09 246.196 31.09C248.112 31.09 249.648 31.6928 250.804 32.8984C251.96 34.104 252.538 35.5904 252.538 37.3575C252.538 39.1246 251.96 40.6192 250.804 41.8413ZM243.966 39.8595C244.511 40.5201 245.255 40.8504 246.196 40.8504C247.137 40.8504 247.881 40.5201 248.426 39.8595C248.987 39.1824 249.268 38.3484 249.268 37.3575C249.268 36.3831 248.987 35.5656 248.426 34.905C247.881 34.2279 247.137 33.8893 246.196 33.8893C245.255 33.8893 244.511 34.2279 243.966 34.905C243.421 35.5656 243.149 36.3831 243.149 37.3575C243.149 38.3484 243.421 39.1824 243.966 39.8595Z" fill="url(#paint5_linear_58_4201)"/>
<path d="M262.675 43.3524H254.872V31.3873H262.452C263.608 31.3873 264.508 31.6846 265.152 32.2791C265.796 32.8736 266.118 33.6003 266.118 34.4591C266.118 35.1527 265.929 35.739 265.549 36.2179C265.169 36.6969 264.682 37.0189 264.087 37.184C264.748 37.3327 265.293 37.6795 265.722 38.2245C266.152 38.7695 266.366 39.3971 266.366 40.1072C266.366 41.0486 266.036 41.8248 265.375 42.4358C264.731 43.0469 263.831 43.3524 262.675 43.3524ZM261.907 40.7761C262.287 40.7761 262.584 40.677 262.799 40.4788C263.03 40.2806 263.146 40.0081 263.146 39.6613C263.146 39.3475 263.03 39.0833 262.799 38.8686C262.584 38.6539 262.287 38.5465 261.907 38.5465H258.018V40.7761H261.907ZM261.808 35.9702C262.138 35.9702 262.403 35.8794 262.601 35.6977C262.815 35.4995 262.923 35.2601 262.923 34.9793C262.923 34.682 262.824 34.4426 262.626 34.2609C262.427 34.0627 262.155 33.9636 261.808 33.9636H258.018V35.9702H261.808Z" fill="url(#paint6_linear_58_4201)"/>
<path d="M279.717 43.3524H276.571V42.1138C275.712 43.1377 274.449 43.6497 272.781 43.6497C271.707 43.6497 270.741 43.3029 269.882 42.6092C269.04 41.8991 268.619 40.9247 268.619 39.6861C268.619 38.3979 269.032 37.4318 269.858 36.7877C270.7 36.1436 271.674 35.8216 272.781 35.8216C274.482 35.8216 275.745 36.3088 276.571 37.2831V35.6729C276.571 35.0619 276.331 34.5747 275.853 34.2113C275.374 33.848 274.738 33.6664 273.945 33.6664C272.64 33.6664 271.476 34.137 270.452 35.0784L269.263 32.9727C270.683 31.7176 272.426 31.09 274.49 31.09C276.026 31.09 277.281 31.4451 278.255 32.1552C279.23 32.8654 279.717 34.0214 279.717 35.6234V43.3524ZM274.044 41.5192C275.217 41.5192 276.059 41.1724 276.571 40.4788V38.9924C276.059 38.2988 275.217 37.952 274.044 37.952C273.4 37.952 272.863 38.1171 272.434 38.4474C272.005 38.7612 271.79 39.1989 271.79 39.7604C271.79 40.3054 272.005 40.7348 272.434 41.0486C272.863 41.3623 273.4 41.5192 274.044 41.5192Z" fill="url(#paint7_linear_58_4201)"/>
<path d="M285.984 43.3524H282.838V31.3873H285.984V35.8216H290.938V31.3873H294.084V43.3524H290.938V38.5713H285.984V43.3524Z" fill="url(#paint8_linear_58_4201)"/>
<path d="M300.23 43.3524H297.208V31.3873H300.354V38.6209L305.283 31.3873H308.454V43.3524H305.308V35.8463L300.23 43.3524Z" fill="url(#paint9_linear_58_4201)"/>
<path d="M317.201 43.6497C315.351 43.6497 313.824 43.0716 312.618 41.9156C311.412 40.7595 310.81 39.2402 310.81 37.3575C310.81 35.5904 311.388 34.104 312.544 32.8984C313.716 31.6928 315.203 31.09 317.003 31.09C318.786 31.09 320.231 31.7011 321.338 32.9232C322.444 34.1288 322.998 35.7142 322.998 37.6795V38.3731H314.104C314.204 39.1659 314.559 39.8265 315.17 40.3549C315.781 40.8834 316.573 41.1477 317.548 41.1477C318.076 41.1477 318.646 41.0403 319.257 40.8256C319.885 40.6109 320.38 40.3219 320.743 39.9586L322.131 41.9899C320.925 43.0964 319.282 43.6497 317.201 43.6497ZM319.951 36.2427C319.901 35.5656 319.629 34.9545 319.133 34.4095C318.654 33.8645 317.944 33.592 317.003 33.592C316.111 33.592 315.417 33.8645 314.922 34.4095C314.426 34.938 314.137 35.5491 314.055 36.2427H319.951Z" fill="url(#paint10_linear_58_4201)"/>
<path fill-rule="evenodd" clip-rule="evenodd" d="M29.5353 0.120094C27.4774 1.25764 22.3866 3.76638 16.7507 5.62709C11.5079 7.35798 4.71064 8.52146 1.08825 9.01037C0.456117 9.09569 -0.014969 9.63509 0.000363773 10.2721C0.125934 15.4889 0.443485 25.0023 0.903424 28.8156C1.52246 33.948 4.43191 44.3983 9.01275 51.695C13.5085 58.8561 20.0315 66.3746 29.4594 71.0939C29.7979 71.2633 30.1981 71.2633 30.5365 71.0939C39.9645 66.3746 46.4874 58.8561 50.9832 51.695C55.564 44.3983 58.4735 33.948 59.0925 28.8156C59.5525 25.0023 59.87 15.4889 59.9956 10.2721C60.0109 9.63509 59.5398 9.09569 58.9077 9.01037C55.2853 8.52146 48.488 7.35798 43.2453 5.62709C37.6093 3.76638 32.5185 1.25764 30.4606 0.120094C30.3186 0.0415878 30.1603 0 29.998 0C29.8357 0 29.6773 0.0415878 29.5353 0.120094ZM33.7698 46.556L31.6465 28.4843L47.2965 37.7953L40.9309 39.5877L45.6729 46.8934L42.7475 48.7881L38.0056 41.4824L33.7698 46.556Z" fill="url(#paint11_linear_58_4201)"/>
<defs>
<linearGradient id="paint0_linear_58_4201" x1="247.916" y1="23.2246" x2="247.916" y2="47.9971" gradientUnits="userSpaceOnUse">
<stop stop-color="#09A9E5"/>
<stop offset="1" stop-color="#2155CF"/>
</linearGradient>
<linearGradient id="paint1_linear_58_4201" x1="247.916" y1="23.2246" x2="247.916" y2="47.9971" gradientUnits="userSpaceOnUse">
<stop stop-color="#09A9E5"/>
<stop offset="1" stop-color="#2155CF"/>
</linearGradient>
<linearGradient id="paint2_linear_58_4201" x1="247.916" y1="23.2246" x2="247.916" y2="47.9971" gradientUnits="userSpaceOnUse">
<stop stop-color="#09A9E5"/>
<stop offset="1" stop-color="#2155CF"/>
</linearGradient>
<linearGradient id="paint3_linear_58_4201" x1="247.916" y1="23.2246" x2="247.916" y2="47.9971" gradientUnits="userSpaceOnUse">
<stop stop-color="#09A9E5"/>
<stop offset="1" stop-color="#2155CF"/>
</linearGradient>
<linearGradient id="paint4_linear_58_4201" x1="247.916" y1="23.2246" x2="247.916" y2="47.9971" gradientUnits="userSpaceOnUse">
<stop stop-color="#09A9E5"/>
<stop offset="1" stop-color="#2155CF"/>
</linearGradient>
<linearGradient id="paint5_linear_58_4201" x1="247.916" y1="23.2246" x2="247.916" y2="47.9971" gradientUnits="userSpaceOnUse">
<stop stop-color="#09A9E5"/>
<stop offset="1" stop-color="#2155CF"/>
</linearGradient>
<linearGradient id="paint6_linear_58_4201" x1="247.916" y1="23.2246" x2="247.916" y2="47.9971" gradientUnits="userSpaceOnUse">
<stop stop-color="#09A9E5"/>
<stop offset="1" stop-color="#2155CF"/>
</linearGradient>
<linearGradient id="paint7_linear_58_4201" x1="247.916" y1="23.2246" x2="247.916" y2="47.9971" gradientUnits="userSpaceOnUse">
<stop stop-color="#09A9E5"/>
<stop offset="1" stop-color="#2155CF"/>
</linearGradient>
<linearGradient id="paint8_linear_58_4201" x1="247.916" y1="23.2246" x2="247.916" y2="47.9971" gradientUnits="userSpaceOnUse">
<stop stop-color="#09A9E5"/>
<stop offset="1" stop-color="#2155CF"/>
</linearGradient>
<linearGradient id="paint9_linear_58_4201" x1="247.916" y1="23.2246" x2="247.916" y2="47.9971" gradientUnits="userSpaceOnUse">
<stop stop-color="#09A9E5"/>
<stop offset="1" stop-color="#2155CF"/>
</linearGradient>
<linearGradient id="paint10_linear_58_4201" x1="247.916" y1="23.2246" x2="247.916" y2="47.9971" gradientUnits="userSpaceOnUse">
<stop stop-color="#09A9E5"/>
<stop offset="1" stop-color="#2155CF"/>
</linearGradient>
<linearGradient id="paint11_linear_58_4201" x1="29.998" y1="0" x2="29.998" y2="71.221" gradientUnits="userSpaceOnUse">
<stop stop-color="#09A9E5"/>
<stop offset="1" stop-color="#2155CF"/>
</linearGradient>
</defs>
</svg>
